<?xml version="1.0" encoding="UTF-8"?>
<svg xmlns="http://www.w3.org/2000/svg" xmlns:xlink="http://www.w3.org/1999/xlink" width="30px" height="30px" viewBox="0 0 30 30" version="1.1">
<g id="surface1">
<path style="fill:none;stroke-width:10;stroke-linecap:butt;stroke-linejoin:miter;stroke:rgb(100%,0%,0%);stroke-opacity:1;stroke-miterlimit:4;" d="M 50 1.002604 L 50 35 Z M 50 1.002604 " transform="matrix(0.3,0,0,0.3,0,0)"/>
<path style="fill:none;stroke-width:10;stroke-linecap:butt;stroke-linejoin:miter;stroke:rgb(100%,0%,0%);stroke-opacity:1;stroke-miterlimit:4;" d="M 50 65 L 50 100 Z M 50 65 " transform="matrix(0.3,0,0,0.3,0,0)"/>
<path style="fill:none;stroke-width:10;stroke-linecap:butt;stroke-linejoin:miter;stroke:rgb(100%,0%,0%);stroke-opacity:1;stroke-miterlimit:4;" d="M 35 50 L 0 50 Z M 35 50 " transform="matrix(0.3,0,0,0.3,0,0)"/>
<path style="fill:none;stroke-width:10;stroke-linecap:butt;stroke-linejoin:miter;stroke:rgb(100%,0%,0%);stroke-opacity:1;stroke-miterlimit:4;" d="M 100 50 L 65 50 Z M 100 50 " transform="matrix(0.3,0,0,0.3,0,0)"/>
<path style="fill:none;stroke-width:10;stroke-linecap:butt;stroke-linejoin:miter;stroke:rgb(100%,0%,0%);stroke-opacity:1;stroke-miterlimit:4;" d="M 82.994792 50 C 82.994792 68.229167 68.229167 82.994792 50 82.994792 C 31.770833 82.994792 17.005208 68.229167 17.005208 50 C 17.005208 31.770833 31.770833 17.005208 50 17.005208 C 68.229167 17.005208 82.994792 31.770833 82.994792 50 Z M 82.994792 50 " transform="matrix(0.3,0,0,0.3,0,0)"/>
</g>
</svg>
